<?xml version="1.0" encoding="UTF-8"?>
<svg xmlns="http://www.w3.org/2000/svg" xmlns:xlink="http://www.w3.org/1999/xlink" width="512px" height="px" viewBox="0 0 512 722" version="1.1">
<g id="surface1">
<path style=" stroke:none;fill-rule:nonzero;fill:rgb(14.901961%,30.19608%,89.411765%);fill-opacity:1;" d="M 511.625 141.890625 L 465.015625 663.929688 L 255.5 722 L 46.5625 664.011719 L 0 141.890625 Z M 511.625 141.890625 "/>
<path style=" stroke:none;fill-rule:nonzero;fill:rgb(16.078432%,39.607844%,94.509804%);fill-opacity:1;" d="M 425.109375 630.6875 L 464.941406 184.582031 L 255.8125 184.582031 L 255.8125 677.613281 Z M 425.109375 630.6875 "/>
<path style=" stroke:none;fill-rule:nonzero;fill:rgb(92.156863%,92.156863%,92.156863%);fill-opacity:1;" d="M 106.738281 378.226562 L 112.480469 442.261719 L 255.8125 442.261719 L 255.8125 378.226562 Z M 106.738281 378.226562 "/>
<path style=" stroke:none;fill-rule:nonzero;fill:rgb(92.156863%,92.156863%,92.156863%);fill-opacity:1;" d="M 255.8125 248.617188 L 95.207031 248.617188 L 101.027344 312.652344 L 255.8125 312.652344 Z M 255.8125 248.617188 "/>
<path style=" stroke:none;fill-rule:nonzero;fill:rgb(92.156863%,92.156863%,92.156863%);fill-opacity:1;" d="M 255.8125 611.160156 L 255.8125 544.535156 L 255.53125 544.609375 L 184.199219 525.355469 L 179.636719 474.28125 L 115.34375 474.28125 L 124.316406 574.828125 L 255.519531 611.242188 Z M 255.8125 611.160156 "/>
<path style=" stroke:none;fill-rule:nonzero;fill:rgb(0%,0%,0%);fill-opacity:1;" d="M 120.40625 0 L 197.984375 0 L 197.984375 32.433594 L 152.847656 32.433594 L 152.847656 64.867188 L 197.984375 64.867188 L 197.984375 97.300781 L 120.40625 97.300781 Z M 120.40625 0 "/>
<path style=" stroke:none;fill-rule:nonzero;fill:rgb(0%,0%,0%);fill-opacity:1;" d="M 213.5 0 L 291.074219 0 L 291.074219 28.203125 L 245.9375 28.203125 L 245.9375 33.84375 L 291.074219 33.84375 L 291.074219 98.710938 L 213.5 98.710938 L 213.5 69.097656 L 258.632812 69.097656 L 258.632812 63.457031 L 213.5 63.457031 Z M 213.5 0 "/>
<path style=" stroke:none;fill-rule:nonzero;fill:rgb(0%,0%,0%);fill-opacity:1;" d="M 306.589844 0 L 384.164062 0 L 384.164062 28.203125 L 339.03125 28.203125 L 339.03125 33.84375 L 384.164062 33.84375 L 384.164062 98.710938 L 306.589844 98.710938 L 306.589844 69.097656 L 351.722656 69.097656 L 351.722656 63.457031 L 306.589844 63.457031 Z M 306.589844 0 "/>
<path style=" stroke:none;fill-rule:nonzero;fill:rgb(100%,100%,100%);fill-opacity:1;" d="M 334.460938 442.261719 L 327.027344 525.3125 L 255.589844 544.589844 L 255.589844 611.210938 L 386.898438 574.828125 L 387.859375 564.007812 L 402.910156 395.421875 L 404.472656 378.226562 L 416.039062 248.617188 L 255.589844 248.617188 L 255.589844 312.652344 L 345.84375 312.652344 L 340.015625 378.226562 L 255.589844 378.226562 L 255.589844 442.261719 Z M 334.460938 442.261719 "/>
</g>
</svg>
