<?xml version="1.0" encoding="UTF-8"?>
<svg xmlns="http://www.w3.org/2000/svg" xmlns:xlink="http://www.w3.org/1999/xlink" width="512px" height="px" viewBox="0 0 512 564" version="1.1">
<g id="surface1">
<path style=" stroke:none;fill-rule:nonzero;fill:rgb(0%,56.862748%,88.627452%);fill-opacity:1;" d="M 507.019531 237.855469 C 505.59375 236.683594 492.78125 227.082031 465.261719 227.082031 C 458.144531 227.082031 450.789062 227.785156 443.671875 228.957031 C 438.449219 193.125 408.320312 175.792969 407.132812 174.855469 L 399.777344 170.640625 L 395.03125 177.433594 C 389.101562 186.566406 384.59375 196.871094 381.984375 207.410156 C 377 227.785156 380.085938 246.988281 390.523438 263.382812 C 377.949219 270.40625 357.546875 272.046875 353.277344 272.28125 L 16.371094 272.28125 C 7.589844 272.28125 0.472656 279.308594 0.472656 287.972656 C 0 317.011719 4.980469 346.050781 15.183594 373.453125 C 26.808594 403.429688 44.128906 425.679688 66.433594 439.261719 C 91.582031 454.484375 132.625 463.148438 178.890625 463.148438 C 199.769531 463.148438 220.648438 461.277344 241.289062 457.527344 C 269.996094 452.375 297.519531 442.539062 322.90625 428.253906 C 343.710938 416.347656 362.457031 401.164062 378.425781 383.289062 C 405.234375 353.546875 421.128906 320.292969 432.753906 290.78125 L 437.5 290.78125 C 466.683594 290.78125 484.714844 279.308594 494.679688 269.46875 C 501.324219 263.382812 506.304688 255.886719 509.863281 247.457031 L 512 241.367188 Z M 507.019531 237.855469 "/>
<path style=" stroke:none;fill-rule:nonzero;fill:rgb(0%,56.862748%,88.627452%);fill-opacity:1;" d="M 47.6875 262.679688 L 92.765625 262.679688 C 94.902344 262.679688 96.800781 261.039062 96.800781 258.699219 L 96.800781 218.886719 C 96.800781 216.777344 95.140625 214.902344 92.765625 214.902344 L 47.6875 214.902344 C 45.554688 214.902344 43.65625 216.542969 43.65625 218.886719 L 43.65625 258.699219 C 43.894531 261.039062 45.554688 262.679688 47.6875 262.679688 Z M 109.851562 262.679688 L 154.929688 262.679688 C 157.066406 262.679688 158.960938 261.039062 158.960938 258.699219 L 158.960938 218.886719 C 158.960938 216.777344 157.300781 214.902344 154.929688 214.902344 L 109.847656 214.902344 C 107.714844 214.902344 105.816406 216.542969 105.816406 218.886719 L 105.816406 258.699219 C 106.054688 261.039062 107.714844 262.679688 109.847656 262.679688 M 173.195312 262.679688 L 218.277344 262.679688 C 220.410156 262.679688 222.308594 261.039062 222.308594 258.699219 L 222.308594 218.886719 C 222.308594 216.777344 220.648438 214.902344 218.277344 214.902344 L 173.195312 214.902344 C 171.0625 214.902344 169.164062 216.542969 169.164062 218.886719 L 169.164062 258.699219 C 169.164062 261.039062 170.824219 262.679688 173.195312 262.679688 Z M 235.59375 262.679688 L 280.675781 262.679688 C 282.808594 262.679688 284.707031 261.039062 284.707031 258.699219 L 284.707031 218.886719 C 284.707031 216.777344 283.046875 214.902344 280.675781 214.902344 L 235.59375 214.902344 C 233.460938 214.902344 231.5625 216.542969 231.5625 218.886719 L 231.5625 258.699219 C 231.5625 261.039062 233.460938 262.679688 235.59375 262.679688 Z M 109.851562 205.769531 L 154.929688 205.769531 C 157.0625 205.769531 158.960938 203.898438 158.960938 201.789062 L 158.960938 161.976562 C 158.960938 159.867188 157.300781 157.996094 154.929688 157.996094 L 109.847656 157.996094 C 107.714844 157.996094 105.816406 159.632812 105.816406 161.976562 L 105.816406 201.789062 C 106.054688 203.898438 107.714844 205.769531 109.847656 205.769531 M 173.195312 205.769531 L 218.277344 205.769531 C 220.410156 205.769531 222.308594 203.898438 222.308594 201.789062 L 222.308594 161.976562 C 222.308594 159.867188 220.648438 157.996094 218.277344 157.996094 L 173.195312 157.996094 C 171.0625 157.996094 169.164062 159.632812 169.164062 161.976562 L 169.164062 201.789062 C 169.164062 203.898438 170.824219 205.769531 173.195312 205.769531 M 235.59375 205.769531 L 280.675781 205.769531 C 282.808594 205.769531 284.707031 203.898438 284.707031 201.789062 L 284.707031 161.976562 C 284.707031 159.867188 282.808594 157.996094 280.675781 157.996094 L 235.59375 157.996094 C 233.460938 157.996094 231.5625 159.632812 231.5625 161.976562 L 231.5625 201.789062 C 231.5625 203.898438 233.460938 205.769531 235.59375 205.769531 M 235.59375 148.628906 L 280.675781 148.628906 C 282.808594 148.628906 284.707031 146.988281 284.707031 144.644531 L 284.707031 104.832031 C 284.707031 102.726562 282.808594 100.851562 280.675781 100.851562 L 235.59375 100.851562 C 233.460938 100.851562 231.5625 102.492188 231.5625 104.832031 L 231.5625 144.644531 C 231.5625 146.753906 233.460938 148.628906 235.59375 148.628906 M 298.46875 262.679688 L 343.546875 262.679688 C 345.683594 262.679688 347.582031 261.039062 347.582031 258.699219 L 347.582031 218.886719 C 347.582031 216.777344 345.921875 214.902344 343.546875 214.902344 L 298.46875 214.902344 C 296.332031 214.902344 294.433594 216.542969 294.433594 218.886719 L 294.433594 258.699219 C 294.671875 261.039062 296.332031 262.679688 298.46875 262.679688 "/>
</g>
</svg>
