<?xml version="1.0" encoding="UTF-8"?>
<svg xmlns="http://www.w3.org/2000/svg" xmlns:xlink="http://www.w3.org/1999/xlink" width="512px" height="px" viewBox="0 0 512 512" version="1.1">
<g id="surface1">
<path style=" stroke:none;fill-rule:nonzero;fill:rgb(87.058824%,29.803923%,21.176471%);fill-opacity:1;" d="M 502.34375 233.1875 L 278.800781 9.65625 C 265.933594 -3.21875 245.054688 -3.21875 232.171875 9.65625 L 185.753906 56.074219 L 244.636719 114.960938 C 258.320312 110.339844 274.015625 113.441406 284.921875 124.347656 C 295.882812 135.324219 298.960938 151.152344 294.226562 164.878906 L 350.976562 221.632812 C 364.707031 216.902344 380.546875 219.960938 391.515625 230.945312 C 406.839844 246.265625 406.839844 271.097656 391.515625 286.425781 C 376.183594 301.757812 351.355469 301.757812 336.015625 286.425781 C 324.488281 274.886719 321.640625 257.957031 327.476562 243.753906 L 274.550781 190.828125 L 274.546875 330.105469 C 278.382812 332 281.886719 334.507812 284.921875 337.523438 C 300.246094 352.84375 300.246094 377.675781 284.921875 393.019531 C 269.59375 408.34375 244.75 408.34375 229.441406 393.019531 C 214.117188 377.675781 214.117188 352.847656 229.441406 337.527344 C 233.113281 333.851562 237.480469 330.941406 242.285156 328.964844 L 242.285156 188.390625 C 237.472656 186.429688 233.105469 183.515625 229.441406 179.828125 C 217.828125 168.234375 215.039062 151.195312 220.988281 136.9375 L 162.941406 78.882812 L 9.660156 232.152344 C -3.21875 245.039062 -3.21875 265.921875 9.660156 278.796875 L 233.207031 502.335938 C 246.078125 515.210938 266.953125 515.210938 279.839844 502.335938 L 502.34375 279.835938 C 515.21875 266.957031 515.21875 246.0625 502.34375 233.1875 "/>
</g>
</svg>
