<?xml version="1.0" encoding="UTF-8"?>
<svg xmlns="http://www.w3.org/2000/svg" xmlns:xlink="http://www.w3.org/1999/xlink" width="512px" height="px" viewBox="0 0 511 498" version="1.1">
<g id="surface1">
<path style=" stroke:none;fill-rule:nonzero;fill:rgb(8.627451%,8.627451%,7.843138%);fill-opacity:1;" d="M 254.511719 0 C 113.96875 0 0 114.152344 0 254.972656 C 0 367.628906 72.925781 463.203125 174.050781 496.917969 C 186.769531 499.277344 191.441406 491.386719 191.441406 484.648438 C 191.441406 478.570312 191.203125 458.484375 191.097656 437.179688 C 120.289062 452.601562 105.347656 407.097656 105.347656 407.097656 C 93.769531 377.625 77.089844 369.789062 77.089844 369.789062 C 54 353.964844 78.828125 354.289062 78.828125 354.289062 C 104.386719 356.085938 117.84375 380.5625 117.84375 380.5625 C 140.546875 419.542969 177.386719 408.273438 191.910156 401.761719 C 194.191406 385.277344 200.789062 374.03125 208.066406 367.664062 C 151.539062 361.214844 92.109375 339.355469 92.109375 241.65625 C 92.109375 213.820312 102.050781 191.074219 118.335938 173.21875 C 115.691406 166.796875 106.980469 140.863281 120.800781 105.742188 C 120.800781 105.742188 142.171875 98.890625 190.808594 131.878906 C 211.109375 126.226562 232.882812 123.394531 254.511719 123.300781 C 276.140625 123.394531 297.929688 126.226562 318.269531 131.878906 C 366.851562 98.890625 388.191406 105.742188 388.191406 105.742188 C 402.046875 140.863281 393.332031 166.796875 390.6875 173.21875 C 407.003906 191.074219 416.878906 213.820312 416.878906 241.65625 C 416.878906 339.585938 357.339844 361.152344 300.667969 367.460938 C 309.796875 375.375 317.929688 390.890625 317.929688 414.679688 C 317.929688 448.792969 317.632812 476.25 317.632812 484.648438 C 317.632812 491.433594 322.214844 499.386719 335.117188 496.882812 C 436.1875 463.128906 509.023438 367.589844 509.023438 254.972656 C 509.023438 114.152344 395.070312 0 254.511719 0 "/>
<path style=" stroke:none;fill-rule:nonzero;fill:rgb(8.627451%,8.627451%,7.843138%);fill-opacity:1;" d="M 95.324219 363.214844 C 94.765625 364.480469 92.773438 364.859375 90.960938 363.992188 C 89.117188 363.160156 88.078125 361.433594 88.675781 360.160156 C 89.226562 358.855469 91.21875 358.492188 93.058594 359.367188 C 94.910156 360.199219 95.964844 361.941406 95.324219 363.214844 M 107.84375 374.40625 C 106.628906 375.53125 104.257812 375.007812 102.644531 373.226562 C 100.980469 371.449219 100.667969 369.074219 101.902344 367.925781 C 103.152344 366.800781 105.453125 367.328125 107.121094 369.109375 C 108.789062 370.90625 109.109375 373.265625 107.839844 374.40625 M 116.433594 388.722656 C 114.871094 389.808594 112.320312 388.789062 110.746094 386.523438 C 109.1875 384.257812 109.1875 381.539062 110.777344 380.449219 C 112.359375 379.359375 114.871094 380.335938 116.46875 382.585938 C 118.023438 384.894531 118.023438 387.613281 116.429688 388.722656 M 130.957031 405.304688 C 129.558594 406.847656 126.589844 406.433594 124.414062 404.332031 C 122.191406 402.273438 121.570312 399.355469 122.96875 397.816406 C 124.378906 396.269531 127.367188 396.707031 129.558594 398.792969 C 131.769531 400.84375 132.445312 403.78125 130.957031 405.304688 M 149.726562 410.90625 C 149.113281 412.902344 146.25 413.808594 143.371094 412.960938 C 140.492188 412.085938 138.605469 409.746094 139.1875 407.730469 C 139.785156 405.71875 142.660156 404.773438 145.566406 405.683594 C 148.441406 406.550781 150.328125 408.875 149.730469 410.90625 M 171.09375 413.277344 C 171.164062 415.382812 168.71875 417.125 165.695312 417.164062 C 162.648438 417.230469 160.1875 415.527344 160.15625 413.460938 C 160.15625 411.335938 162.546875 409.609375 165.589844 409.558594 C 168.613281 409.5 171.09375 411.1875 171.09375 413.277344 M 192.082031 412.472656 C 192.445312 414.523438 190.339844 416.632812 187.335938 417.191406 C 184.382812 417.730469 181.648438 416.464844 181.269531 414.433594 C 180.902344 412.328125 183.046875 410.222656 185.992188 409.675781 C 189.003906 409.152344 191.695312 410.386719 192.082031 412.472656 "/>
</g>
</svg>
