<?xml version="1.0" encoding="UTF-8"?>
<svg xmlns="http://www.w3.org/2000/svg" xmlns:xlink="http://www.w3.org/1999/xlink" width="512px" height="692px" viewBox="0 0 512 691" version="1.1">
<g id="surface1">
<path style=" stroke:none;fill-rule:nonzero;fill:rgb(32.549021%,50.980395%,63.137257%);fill-opacity:1;" d="M 165.082031 534.171875 C 165.082031 534.171875 138.691406 549.5 183.867188 554.6875 C 238.59375 560.921875 266.5625 560.03125 326.875 548.628906 C 326.875 548.628906 342.734375 558.558594 364.878906 567.160156 C 229.675781 625.03125 58.886719 563.804688 165.082031 534.171875 M 148.5625 458.652344 C 148.5625 458.652344 118.960938 480.539062 164.167969 485.207031 C 222.632812 491.230469 268.800781 491.722656 348.691406 476.359375 C 348.691406 476.359375 359.742188 487.546875 377.117188 493.667969 C 213.648438 541.40625 31.574219 497.433594 148.5625 458.652344 "/>
<path style=" stroke:none;fill-rule:nonzero;fill:rgb(90.588236%,43.529412%,0%);fill-opacity:1;" d="M 287.839844 330.550781 C 321.152344 368.855469 279.085938 403.328125 279.085938 403.328125 C 279.085938 403.328125 363.675781 359.714844 324.828125 305.101562 C 288.542969 254.175781 260.71875 228.867188 411.351562 141.621094 C 411.351562 141.621094 174.910156 200.597656 287.839844 330.550781 "/>
<path style=" stroke:none;fill-rule:nonzero;fill:rgb(32.549021%,50.980395%,63.137257%);fill-opacity:1;" d="M 466.65625 590.03125 C 466.65625 590.03125 486.1875 606.101562 445.144531 618.535156 C 367.105469 642.148438 120.332031 649.277344 51.777344 619.476562 C 27.136719 608.769531 73.347656 593.914062 87.882812 590.792969 C 103.042969 587.511719 111.707031 588.121094 111.707031 588.121094 C 84.304688 568.839844 -65.429688 625.980469 35.652344 642.34375 C 311.316406 686.992188 538.15625 622.242188 466.65625 590.03125 M 177.773438 380.410156 C 177.773438 380.410156 52.25 410.1875 133.324219 420.996094 C 167.554688 425.574219 235.792969 424.539062 299.355469 419.21875 C 351.304688 414.84375 403.46875 405.539062 403.46875 405.539062 C 403.46875 405.539062 385.148438 413.375 371.898438 422.410156 C 244.429688 455.890625 -1.816406 440.316406 69.074219 406.066406 C 129.027344 377.125 177.773438 380.410156 177.773438 380.410156 M 402.949219 506.113281 C 532.527344 438.863281 472.617188 374.242188 430.796875 382.949219 C 420.546875 385.078125 415.980469 386.925781 415.980469 386.925781 C 415.980469 386.925781 419.785156 380.972656 427.050781 378.394531 C 509.777344 349.347656 573.402344 464.066406 400.34375 509.5 C 400.34375 509.503906 402.351562 507.714844 402.949219 506.113281 "/>
<path style=" stroke:none;fill-rule:nonzero;fill:rgb(90.588236%,43.529412%,0%);fill-opacity:1;" d="M 324.828125 0.742188 C 324.828125 0.742188 396.589844 72.4375 256.765625 182.679688 C 144.640625 271.117188 231.195312 321.539062 256.71875 379.148438 C 191.269531 320.175781 143.234375 268.257812 175.460938 219.941406 C 222.753906 149.007812 353.78125 114.621094 324.828125 0.738281 "/>
<path style=" stroke:none;fill-rule:nonzero;fill:rgb(32.549021%,50.980395%,63.137257%);fill-opacity:1;" d="M 190.507812 688.332031 C 314.886719 696.285156 505.882812 683.921875 510.402344 625.144531 C 510.402344 625.144531 501.710938 647.429688 407.613281 665.125 C 301.453125 685.074219 170.519531 682.746094 92.863281 669.957031 C 92.867188 669.957031 108.761719 683.097656 190.507812 688.332031 "/>
</g>
</svg>
