<?xml version="1.0" encoding="UTF-8"?>
<svg xmlns="http://www.w3.org/2000/svg" xmlns:xlink="http://www.w3.org/1999/xlink" width="512px" height="px" viewBox="0 0 512 512" version="1.1">
<g id="surface1">
<path style=" stroke:none;fill-rule:nonzero;fill:rgb(100%,42.352942%,21.568628%);fill-opacity:1;" d="M 444.335938 130.199219 C 376.648438 42.546875 250.71875 26.371094 163.074219 94.066406 C 75.429688 161.761719 59.261719 287.695312 126.96875 375.332031 C 194.671875 462.96875 320.605469 479.125 408.238281 411.410156 C 495.835938 343.714844 512 217.828125 444.328125 130.199219 Z M 444.335938 130.199219 "/>
<path style=" stroke:none;fill-rule:nonzero;fill:rgb(100%,100%,100%);fill-opacity:1;" d="M 353.265625 180 L 268.722656 265.214844 L 244.832031 240.652344 C 328.039062 157.441406 336.394531 164.960938 353.273438 180 Z M 353.265625 180 "/>
<path style=" stroke:none;fill-rule:nonzero;fill:rgb(100%,42.352942%,21.568628%);fill-opacity:1;" d="M 268.722656 267.546875 C 267.972656 267.527344 267.257812 267.230469 266.71875 266.710938 L 242.65625 242.652344 C 241.53125 241.484375 241.53125 239.636719 242.65625 238.472656 C 324.695312 156.433594 335.890625 160.273438 355.273438 177.820312 C 355.929688 178.34375 356.300781 179.152344 356.273438 179.992188 C 356.398438 180.808594 356.085938 181.640625 355.441406 182.167969 L 270.894531 266.71875 C 270.304688 267.261719 269.527344 267.558594 268.722656 267.550781 Z M 249.003906 240.648438 L 268.722656 260.367188 L 348.925781 180.164062 C 343.191406 172.976562 332.972656 171.25 325.195312 176.152344 C 310.660156 182.667969 287.269531 202.550781 249.003906 240.648438 Z M 249.003906 240.648438 "/>
<path style=" stroke:none;fill-rule:nonzero;fill:rgb(100%,100%,100%);fill-opacity:1;" d="M 292.953125 288.773438 L 269.894531 265.214844 L 354.4375 181.667969 C 377.164062 203.890625 343.410156 240.984375 292.953125 288.769531 Z M 292.953125 288.773438 "/>
<path style=" stroke:none;fill-rule:nonzero;fill:rgb(100%,42.352942%,21.568628%);fill-opacity:1;" d="M 292.953125 291.78125 C 292.210938 291.722656 291.511719 291.433594 290.945312 290.949219 L 267.386719 267.890625 C 267.035156 267.035156 267.035156 266.070312 267.386719 265.214844 C 267.136719 264.511719 267.136719 263.742188 267.386719 263.039062 L 351.933594 178.496094 C 353.152344 177.347656 355.054688 177.347656 356.273438 178.496094 C 361.816406 183.59375 364.863281 190.851562 364.628906 198.378906 C 364.628906 220.933594 338.894531 249.335938 295.121094 290.78125 C 294.535156 291.359375 293.765625 291.714844 292.945312 291.78125 Z M 274.234375 265.214844 L 293.113281 284.085938 C 326.53125 252.507812 358.449219 219.925781 358.613281 197.871094 C 358.792969 193.195312 357.246094 188.613281 354.269531 185.007812 Z M 274.234375 265.214844 "/>
<path style=" stroke:none;fill-rule:nonzero;fill:rgb(100%,100%,100%);fill-opacity:1;" d="M 245.496094 241.152344 L 262.207031 257.863281 L 226.949219 266.886719 C 225.484375 267.203125 223.992188 266.507812 223.292969 265.1875 C 222.589844 263.863281 222.855469 262.238281 223.941406 261.203125 L 244.492188 240.820312 C 244.492188 240.820312 245.164062 240.820312 245.496094 241.152344 Z M 245.496094 241.152344 "/>
<path style=" stroke:none;fill-rule:nonzero;fill:rgb(100%,42.352942%,21.568628%);fill-opacity:1;" d="M 226.113281 270.226562 C 223.847656 270.199219 221.761719 268.996094 220.601562 267.050781 C 219.28125 264.5625 219.757812 261.5 221.773438 259.53125 L 242.15625 238.980469 C 243.675781 237.621094 245.976562 237.621094 247.5 238.980469 L 264.210938 255.691406 C 265.199219 256.628906 265.589844 258.054688 265.214844 259.367188 C 264.835938 260.683594 263.734375 261.730469 262.375 262.042969 L 227.117188 269.5625 Z M 244.832031 244.832031 L 225.953125 263.710938 L 257.199219 257.027344 Z M 246.335938 243.328125 Z M 246.335938 243.328125 "/>
<path style=" stroke:none;fill-rule:nonzero;fill:rgb(100%,100%,100%);fill-opacity:1;" d="M 398.21875 133.042969 C 386.125 121.375 367.128906 120.886719 354.445312 131.898438 C 341.761719 142.90625 339.59375 161.804688 349.46875 175.398438 C 359.34375 188.996094 377.960938 192.808594 392.371094 184.171875 L 369.644531 161.445312 Z M 398.21875 133.042969 "/>
<path style=" stroke:none;fill-rule:nonzero;fill:rgb(100%,42.352942%,21.568628%);fill-opacity:1;" d="M 375.660156 191.855469 C 361.457031 191.671875 348.738281 183.019531 343.355469 169.875 C 337.976562 156.742188 340.933594 141.667969 350.875 131.539062 C 364.789062 117.878906 387.082031 117.878906 401 131.539062 C 401.640625 132.078125 402.003906 132.875 402.003906 133.714844 C 402 134.550781 401.632812 135.34375 401 135.886719 L 373.933594 161.453125 L 394.484375 181.671875 C 395.160156 182.316406 395.472656 183.257812 395.316406 184.179688 C 395.21875 185.066406 394.726562 185.863281 393.984375 186.351562 C 388.460938 189.804688 382.113281 191.707031 375.605469 191.867188 Z M 375.660156 127.023438 C 363.757812 127.085938 353.105469 134.246094 348.636719 145.191406 C 344.167969 156.140625 346.601562 168.738281 354.945312 177.148438 C 363.441406 185.695312 376.3125 188.148438 387.359375 183.332031 L 367.640625 163.613281 C 367.007812 163.105469 366.636719 162.335938 366.636719 161.523438 C 366.636719 160.710938 367.007812 159.941406 367.640625 159.433594 L 393.707031 133.199219 C 388.527344 129.230469 382.1875 127.058594 375.660156 127.015625 Z M 375.660156 127.023438 "/>
<path style=" stroke:none;fill-rule:nonzero;fill:rgb(100%,100%,100%);fill-opacity:1;" d="M 398.71875 133.542969 L 370.148438 161.949219 L 392.875 184.671875 C 395.160156 183.359375 397.289062 181.789062 399.222656 179.992188 C 411.601562 166.90625 411.378906 146.359375 398.71875 133.542969 Z M 398.71875 133.542969 "/>
<path style=" stroke:none;fill-rule:nonzero;fill:rgb(100%,42.352942%,21.568628%);fill-opacity:1;" d="M 392.367188 187.179688 C 391.605469 187.222656 390.867188 186.914062 390.359375 186.347656 L 367.636719 163.621094 C 367 163.113281 366.628906 162.34375 366.628906 161.53125 C 366.628906 160.71875 367 159.949219 367.636719 159.441406 L 396.039062 131.539062 C 396.59375 130.699219 397.535156 130.195312 398.542969 130.195312 C 399.550781 130.195312 400.492188 130.699219 401.050781 131.539062 C 407.785156 138.140625 411.582031 147.171875 411.582031 156.601562 C 411.582031 166.03125 407.785156 175.066406 401.050781 181.667969 C 399.082031 183.753906 396.832031 185.550781 394.363281 187.011719 C 393.742188 187.324219 393.023438 187.386719 392.359375 187.179688 Z M 373.988281 161.453125 L 392.867188 180.332031 C 394.167969 179.421875 395.394531 178.417969 396.546875 177.324219 C 402.09375 171.789062 405.222656 164.277344 405.234375 156.441406 C 405.25 149.425781 402.691406 142.648438 398.050781 137.390625 Z M 373.988281 161.453125 "/>
<path style=" stroke:none;fill-rule:nonzero;fill:rgb(100%,100%,100%);fill-opacity:1;" d="M 356.777344 183.507812 C 352.078125 179.097656 344.761719 179.097656 340.066406 183.507812 L 264.378906 259.023438 L 276.910156 271.726562 L 356.945312 201.546875 C 359.414062 199.183594 360.792969 195.90625 360.761719 192.488281 C 360.730469 189.070312 359.285156 185.820312 356.777344 183.503906 Z M 356.777344 183.507812 "/>
<path style=" stroke:none;fill-rule:nonzero;fill:rgb(100%,42.352942%,21.568628%);fill-opacity:1;" d="M 276.242188 274.738281 C 275.492188 274.722656 274.777344 274.421875 274.234375 273.90625 L 261.535156 261.203125 C 260.410156 260.039062 260.410156 258.191406 261.535156 257.027344 L 337.226562 181.667969 C 341.6875 177.210938 348.417969 175.929688 354.203125 178.433594 C 359.988281 180.941406 363.660156 186.722656 363.460938 193.027344 C 363.285156 197.25 361.417969 201.222656 358.28125 204.054688 L 278.246094 274.230469 C 277.664062 274.644531 276.949219 274.824219 276.242188 274.734375 Z M 267.386719 259.023438 L 275.738281 267.546875 L 354.269531 199.203125 C 356.210938 197.511719 357.371094 195.09375 357.445312 192.519531 C 357.523438 189.945312 356.507812 187.425781 354.609375 185.671875 C 350.957031 182.035156 345.054688 182.035156 341.40625 185.671875 Z M 267.386719 259.023438 "/>
<path style=" stroke:none;fill-rule:nonzero;fill:rgb(100%,100%,100%);fill-opacity:1;" d="M 205.730469 345.078125 L 209.070312 361.621094 C 209.34375 363.371094 208.519531 365.113281 206.992188 366.007812 C 205.464844 366.902344 203.535156 366.707031 202.214844 365.523438 L 179.328125 343.46875 L 250.675781 271.554688 L 275.40625 271.554688 L 292.117188 288.265625 C 266.050781 311.058594 236.984375 330.171875 205.730469 345.078125 Z M 205.730469 345.078125 "/>
<path style=" stroke:none;fill-rule:nonzero;fill:rgb(100%,42.352942%,21.568628%);fill-opacity:1;" d="M 204.226562 369.640625 C 202.335938 369.605469 200.46875 368.828125 199.214844 367.46875 L 177.328125 345.582031 C 176.691406 345.074219 176.324219 344.304688 176.324219 343.492188 C 176.324219 342.679688 176.691406 341.910156 177.328125 341.402344 L 249.171875 269.386719 L 275.570312 268.554688 C 276.21875 268.324219 276.925781 268.324219 277.574219 268.554688 L 294.285156 285.265625 C 294.933594 285.859375 295.242188 286.734375 295.121094 287.601562 C 295.144531 288.445312 294.773438 289.25 294.117188 289.777344 L 292.78125 290.949219 C 266.609375 312.769531 237.816406 331.234375 207.066406 345.917969 L 210.242188 359.453125 C 210.738281 361.566406 210.257812 363.792969 208.929688 365.511719 C 207.597656 367.230469 205.566406 368.257812 203.394531 368.308594 Z M 183.84375 343.40625 L 203.558594 363.289062 L 201.550781 347.578125 C 201.007812 345.429688 202.058594 343.191406 204.058594 342.234375 C 233.980469 327.746094 262.035156 309.679688 287.601562 288.429688 L 273.898438 274.726562 L 251.507812 274.726562 Z M 207.90625 346.414062 Z M 207.90625 346.414062 "/>
<path style=" stroke:none;fill-rule:nonzero;fill:rgb(100%,100%,100%);fill-opacity:1;" d="M 162.121094 360.617188 L 178.832031 343.90625 L 204.566406 369.640625 L 163.632812 366.804688 C 162.191406 366.691406 160.984375 365.664062 160.640625 364.257812 C 160.300781 362.855469 160.898438 361.386719 162.128906 360.625 Z M 162.121094 360.617188 "/>
<path style=" stroke:none;fill-rule:nonzero;fill:rgb(100%,42.352942%,21.568628%);fill-opacity:1;" d="M 205.0625 372.148438 L 164.289062 369.308594 C 161.871094 369.085938 159.789062 367.429688 158.9375 365.21875 C 158.085938 363.007812 158.605469 360.378906 160.277344 358.613281 L 176.988281 341.902344 C 178.15625 340.777344 180.003906 340.777344 181.167969 341.902344 L 206.734375 367.46875 C 207.460938 368.460938 207.460938 369.8125 206.734375 370.808594 C 206.347656 371.433594 205.757812 371.902344 205.0625 372.140625 Z M 164.289062 362.792969 L 197.703125 364.96875 L 179.328125 347.753906 Z M 164.289062 362.792969 "/>
<path style=" stroke:none;fill-rule:nonzero;fill:rgb(100%,100%,100%);fill-opacity:1;" d="M 277.746094 273.574219 L 243.992188 278.753906 L 263.539062 259.375 Z M 277.746094 273.574219 "/>
<path style=" stroke:none;fill-rule:nonzero;fill:rgb(100%,42.352942%,21.568628%);fill-opacity:1;" d="M 243.992188 281.917969 C 242.84375 281.949219 241.789062 281.292969 241.316406 280.246094 C 240.585938 279.253906 240.585938 277.902344 241.316406 276.90625 L 260.695312 257.359375 C 261.914062 256.210938 263.816406 256.210938 265.039062 257.359375 L 279.25 271.554688 C 279.828125 272.476562 279.828125 273.644531 279.25 274.5625 C 278.964844 275.683594 278.050781 276.535156 276.910156 276.738281 L 243.496094 281.917969 Z M 263.539062 263.703125 L 252.679688 274.5625 L 271.398438 271.726562 Z M 263.539062 263.703125 "/>
<path style=" stroke:none;fill-rule:nonzero;fill:rgb(100%,100%,100%);fill-opacity:1;" d="M 277.746094 273.5625 L 254.183594 276.570312 C 252.890625 276.863281 251.554688 276.273438 250.902344 275.117188 C 250.25 273.960938 250.429688 272.515625 251.347656 271.554688 L 263.546875 259.355469 Z M 277.746094 273.5625 "/>
<path style=" stroke:none;fill-rule:nonzero;fill:rgb(100%,42.352942%,21.568628%);fill-opacity:1;" d="M 253.515625 279.75 C 251.292969 279.730469 249.25 278.519531 248.171875 276.574219 C 246.859375 274.226562 247.269531 271.289062 249.171875 269.386719 L 261.371094 257.1875 C 262.59375 256.042969 264.492188 256.042969 265.714844 257.1875 L 279.917969 271.394531 C 280.78125 272.210938 281.082031 273.460938 280.683594 274.582031 C 280.289062 275.703125 279.269531 276.484375 278.082031 276.574219 L 254.691406 279.582031 Z M 253.515625 273.566406 L 271.226562 271.394531 L 263.378906 263.542969 L 253.351562 273.566406 Z M 398.882812 152.761719 C 398.230469 151.671875 396.867188 151.238281 395.707031 151.757812 C 395.875 157.398438 395.550781 160.3125 393.871094 162.457031 C 395.996094 165.824219 396.835938 165.566406 397.378906 164.957031 C 400.1875 161.515625 400.773438 156.773438 398.882812 152.753906 Z M 398.882812 152.761719 "/>
</g>
</svg>
