<?xml version="1.0" encoding="UTF-8"?>
<svg xmlns="http://www.w3.org/2000/svg" xmlns:xlink="http://www.w3.org/1999/xlink" width="512px" height="px" viewBox="0 0 511 445" version="1.1">
<g id="surface1">
<path style=" stroke:none;fill-rule:nonzero;fill:rgb(38.039216%,85.490197%,98.431373%);fill-opacity:1;" d="M 300.015625 222.5 C 300.015625 197.878906 280.085938 177.921875 255.5 177.921875 C 230.914062 177.921875 210.984375 197.878906 210.984375 222.5 C 210.984375 247.121094 230.914062 267.078125 255.5 267.078125 C 280.085938 267.078125 300.015625 247.121094 300.015625 222.5 Z M 300.015625 222.5 "/>
<path style="fill:none;stroke-width:1;stroke-linecap:butt;stroke-linejoin:miter;stroke:rgb(38.039216%,85.490197%,98.431373%);stroke-opacity:1;stroke-miterlimit:4;" d="M 10.999973 0 C 10.999973 -2.319566 6.075197 -4.199935 0.000000000000001776 -4.199935 C -6.075197 -4.199935 -10.999973 -2.319566 -10.999973 0 C -10.999973 2.319566 -6.075197 4.199935 0.000000000000001776 4.199935 C 6.075197 4.199935 10.999973 2.319566 10.999973 0 Z M 10.999973 0 " transform="matrix(21.714187,0,0,21.746057,255.5,222.5)"/>
<path style="fill:none;stroke-width:1;stroke-linecap:butt;stroke-linejoin:miter;stroke:rgb(38.039216%,85.490197%,98.431373%);stroke-opacity:1;stroke-miterlimit:4;" d="M 11.000084 -0.0000399724 C 10.999952 -2.319558 6.075014 -4.199966 -0.000065597 -4.200001 C -6.075145 -4.200037 -10.99997 -2.319544 -11.000084 0.0000399724 C -10.999952 2.319558 -6.075014 4.199966 0.000065597 4.200001 C 6.075145 4.200037 10.99997 2.319544 11.000084 -0.0000399724 Z M 11.000084 -0.0000399724 " transform="matrix(10.857093,18.832638,-18.805037,10.873028,255.5,222.5)"/>
<path style="fill:none;stroke-width:1;stroke-linecap:butt;stroke-linejoin:miter;stroke:rgb(38.039216%,85.490197%,98.431373%);stroke-opacity:1;stroke-miterlimit:4;" d="M 11.000084 0.0000399724 C 10.99997 -2.319544 6.075145 -4.200037 0.000065597 -4.200001 C -6.075014 -4.199966 -10.999952 -2.319558 -11.000084 -0.0000399724 C -10.99997 2.319544 -6.075145 4.200037 -0.000065597 4.200001 C 6.075014 4.199966 10.999952 2.319558 11.000084 0.0000399724 Z M 11.000084 0.0000399724 " transform="matrix(-10.857093,18.832638,-18.805037,-10.873028,255.5,222.5)"/>
</g>
</svg>
