<?xml version="1.0" encoding="UTF-8"?>
<svg xmlns="http://www.w3.org/2000/svg" xmlns:xlink="http://www.w3.org/1999/xlink" width="512px" height="px" viewBox="0 0 512 454" version="1.1">
<g id="surface1">
<path style=" stroke:none;fill-rule:nonzero;fill:rgb(42.745098%,70.19608%,24.705882%);fill-opacity:1;" d="M 502.300781 199.726562 L 402.667969 27.273438 C 394.042969 12.296875 372.828125 0 355.480469 0 L 156.417969 0 C 139.171875 0 117.855469 12.296875 109.230469 27.273438 L 9.699219 199.726562 C 1.074219 214.703125 1.074219 239.199219 9.699219 254.171875 L 109.230469 426.726562 C 117.855469 441.703125 139.070312 454 156.417969 454 L 355.582031 454 C 372.828125 454 394.042969 441.703125 402.769531 426.726562 L 502.300781 254.171875 C 510.925781 239.199219 510.925781 214.703125 502.300781 199.726562 Z M 234.4375 95.402344 C 234.4375 84.097656 243.65625 74.875 254.960938 74.875 C 266.261719 74.875 275.480469 84.097656 275.480469 95.402344 L 275.480469 218.074219 C 275.480469 229.378906 266.261719 238.601562 254.960938 238.601562 C 243.65625 238.601562 234.4375 229.378906 234.4375 218.074219 Z M 254.960938 357.308594 C 178.230469 357.308594 115.773438 294.832031 115.773438 218.074219 C 115.875 174.042969 136.691406 132.6875 171.984375 106.308594 C 180.113281 100.261719 191.511719 101.945312 197.558594 110.078125 C 203.609375 118.210938 201.921875 129.613281 193.792969 135.664062 C 148.289062 169.480469 138.773438 233.84375 172.578125 279.363281 C 206.382812 324.878906 270.722656 334.402344 316.222656 300.585938 C 342.296875 281.246094 357.664062 250.601562 357.664062 218.074219 C 357.5625 185.449219 342.097656 154.804688 315.828125 135.367188 C 307.699219 129.417969 306.011719 117.914062 311.960938 109.78125 C 317.910156 101.648438 329.410156 99.964844 337.539062 105.914062 C 373.128906 132.195312 394.042969 173.84375 394.144531 218.074219 C 394.144531 294.929688 331.6875 357.308594 254.960938 357.308594 Z M 254.960938 357.308594 "/>
</g>
</svg>
